<?xml version="1.0" encoding="UTF-8" standalone="no"?>
<!-- Generator: Adobe Illustrator 16.0.0, SVG Export Plug-In . SVG Version: 6.00 Build 0)  -->

<svg
   version="1.1"
   x="0px"
   y="0px"
   width="12.096184"
   height="26.382662"
   viewBox="0 0 12.096184 26.382662"
   enable-background="new 0 0 25.458 32"
   xml:space="preserve"
   id="svg24"
   xmlns="http://www.w3.org/2000/svg"
   xmlns:svg="http://www.w3.org/2000/svg"><defs
   id="defs28" />

<g
   id="guides"
   transform="translate(-6.7794128,2.6842654)">
</g>
<path
   style="fill:#ffffff;stroke-width:0.0179798"
   d="m 11.591858,25.319652 c -0.556601,0.315666 -0.79926,0.427904 -1.249034,0.577691 -0.4071548,0.135615 -0.7260578,0.219077 -1.1910568,0.311713 -1.212878,0.241659 -2.265837,0.231548 -3.499724,-0.0336 -0.943682,-0.202769 -1.841106,-0.547769 -2.663824,-1.02404 L 2.8327123,25.0614 2.7990857,15.500753 C 2.780595,10.242389 2.7631011,5.8910931 2.7602148,5.8311986 c -0.0043,-0.088978 0.00157,-0.1206797 0.032086,-0.1733789 0.041098,-0.070988 0.162746,-0.4766685 0.1444026,-0.4815714 -0.00626,-0.00173 -0.09435,0.012747 -0.1956452,0.032075 C 2.4760285,5.2588873 2.2651156,5.2444049 1.9224025,5.1520861 1.5390937,5.0493805 1.2440209,4.8927412 0.93604398,4.6303951 0.61573728,4.3575612 0.32653258,3.939575 0.17756138,3.5341718 -0.13033842,2.6964105 -0.03586662,1.8471845 0.44588008,1.1210977 0.66971218,0.78373568 0.94701178,0.52911788 1.3076169,0.32984528 c 0.4420915,-0.2443066 0.9182569,-0.3520098 1.4416536,-0.3260725 0.2496252,0.012353 0.7104527,0.1306331 0.9116877,0.2340363 0.509763,0.261771 0.931688,0.6851406 1.155768,1.15970282 0.03882,0.082231 0.07477,0.147096 0.07987,0.1441566 0.0051,-0.00299 0.0074,-0.031341 0.005,-0.063117 -0.0041,-0.055689 -0.0011,-0.058628 0.08605,-0.082576 0.138034,-0.03795 4.403965,-0.054769 4.543428,-0.017908 0.199311,0.052163 0.306014,0.2076963 0.369294,0.5359968 0.04287,0.2224601 0.03611,0.4173665 -0.02252,0.6481552 -0.05108,0.2010714 -0.09845,0.2810068 -0.1953,0.3291677 -0.05936,0.029535 -0.336034,0.081719 -0.487305,0.091914 -0.07298,0.00493 -0.135167,0.00932 -0.138194,0.00979 -0.0053,7.474e-4 0.0037,1.4952831 0.0097,1.6258979 0.002,0.044905 0.03147,0.098441 0.104557,0.1902504 0.05592,0.070256 0.112505,0.1530304 0.125739,0.1839218 0.02908,0.067801 0.03366,0.1859194 0.01459,0.3726466 -0.01044,0.102149 -0.0075,0.1386049 0.01115,0.1366475 0.05317,-0.00557 0.590778,0.037703 0.7449288,0.059983 0.0887,0.01282 0.325005,0.046146 0.525104,0.074091 0.200107,0.027913 0.496922,0.076831 0.659597,0.1086792 0.257896,0.05048 0.31811,0.067868 0.470201,0.1358246 0.18867,0.084338 0.248226,0.1366479 0.319294,0.2805638 0.06358,0.1287664 0.07073,0.2335207 0.02444,0.3584254 -0.03882,0.1047855 -0.03929,0.4147265 -0.01495,9.2946779 0.01388,5.052443 0.02621,9.195562 0.0274,9.206912 0.0012,0.01139 -0.217956,0.145478 -0.486986,0.298067 z m 0.120208,-1.104584 c -0.0027,-0.359047 -0.0066,-0.656529 -0.0086,-0.661056 -0.002,-0.0045 -0.08117,0.02241 -0.175937,0.05999 -0.285719,0.11304 -0.85175,0.300223 -1.137216,0.376082 -1.2001398,0.318907 -2.8892468,0.452483 -4.4803108,0.354316 -0.789129,-0.04869 -1.925892,-0.217681 -2.501656,-0.371898 -0.112243,-0.03006 -0.2056992,-0.0488 -0.2076839,-0.0417 -0.012063,0.0438 -0.010935,0.908986 0.00136,0.932305 0.017954,0.03412 0.2053529,0.132736 0.5875049,0.30924 1.082684,0.500002 2.155213,0.771236 3.233801,0.81767 0.230158,0.0099 0.804878,0.01273 1.059605,0.0052 0.34003,-0.01005 0.693798,-0.05645 1.157515,-0.151805 0.9916928,-0.203914 1.3330928,-0.326216 2.1774458,-0.780064 0.158475,-0.08518 0.29061,-0.164005 0.293632,-0.175162 0.003,-0.01109 0.0033,-0.314052 5.36e-4,-0.673099 z m -0.33576,0.725721 c -0.721541,0.375829 -1.223043,0.56877 -1.9010848,0.731313 -0.643049,0.154175 -1.204555,0.212566 -1.974997,0.205358 -0.837548,-0.0078 -1.404138,-0.08241 -2.166573,-0.285184 -0.505446,-0.134193 -0.783588,-0.229456 -1.22562,-0.418795 -0.227053,-0.09727 -0.772435,-0.357657 -0.780218,-0.372537 -0.0089,-0.01712 -0.01187,-0.674673 -0.0032,-0.70718 0.0011,-0.004 0.114751,0.01717 0.252609,0.04719 1.743236,0.378673 3.613172,0.446368 5.471564,0.198073 0.789338,-0.105459 1.4017148,-0.247512 2.1877058,-0.507475 0.188445,-0.06231 0.343755,-0.10974 0.345152,-0.105365 0.0014,0.0043 0.0011,0.08714 -7.42e-4,0.183924 -0.0018,0.09678 -6.6e-4,0.333965 0.0025,0.527076 0.0032,0.193106 0.0029,0.361984 -6.6e-4,0.375279 -0.0036,0.01326 -0.09651,0.07106 -0.206577,0.128396 z m 0.298584,-9.018916 c -0.01107,-3.371164 -0.02357,-6.1367796 -0.02777,-6.1457947 -0.0042,-0.00902 -0.07761,0.00998 -0.1631,0.04222 -1.070562,0.4036787 -2.0094238,0.5955547 -3.3348878,0.6815447 -0.784032,0.05088 -1.362147,0.05113 -2.150162,9.21e-4 -0.937324,-0.0597 -1.691219,-0.162786 -2.6349,-0.360283 -0.118658,-0.02486 -0.2138417,-0.03876 -0.2114963,-0.03098 0.00234,0.0078 0.011511,2.787737 0.020378,6.177625 0.00886,3.389901 0.01765,6.166108 0.019526,6.169357 0.00473,0.0079 0.4534763,0.09762 0.8687433,0.173576 1.343551,0.245738 2.868633,0.322626 4.283597,0.215926 1.234373,-0.09307 2.1358888,-0.280785 3.1163498,-0.648871 0.159729,-0.05995 0.234131,-0.09711 0.234025,-0.116848 -10e-6,-0.01595 -0.0092,-2.787188 -0.02029,-6.158365 z m -0.31526,6.16338 c -0.814509,0.320633 -1.4345168,0.472807 -2.4058538,0.590458 -1.106575,0.134036 -2.182302,0.143983 -3.349508,0.03096 -0.966936,-0.09363 -1.825719,-0.218272 -2.213504,-0.321272 l -0.07886,-0.02111 6.09e-4,-0.125486 c 3.15e-4,-0.06901 -0.0021,-0.486371 -0.0054,-0.927475 -0.0033,-0.441108 -0.0068,-1.459755 -0.0077,-2.26367 -9.58e-4,-0.803912 -0.0035,-1.935405 -0.0057,-2.514432 -0.0022,-0.579017 -0.0049,-1.584906 -0.0061,-2.235295 -0.0025,-1.426898 -0.0059,-2.454684 -0.01105,-3.316282 -0.0021,-0.353773 -0.0014,-0.66344 0.0017,-0.68815 l 0.0055,-0.04493 0.355378,0.06308 c 1.738193,0.308562 2.297732,0.358677 3.771876,0.337867 1.218925,-0.01722 2.286906,-0.148766 3.1857598,-0.392406 0.11939,-0.03235 0.739767,-0.236636 0.881874,-0.2903817 0.04462,-0.016869 0.04553,-0.015291 0.04672,0.082446 0.01206,0.999983 0.02241,2.728508 0.02242,3.744382 7e-6,0.711522 0.0033,1.746867 0.0073,2.300769 0.0083,1.149465 0.01044,2.217118 0.0075,3.687585 -0.0011,0.562768 0.0022,1.286791 0.0075,1.608928 0.0053,0.322153 0.0081,0.591243 0.0063,0.598005 -0.0018,0.0068 -0.09929,0.05004 -0.216576,0.09625 z M 11.648694,7.3644597 c 0.0032,-0.4562196 0.0015,-0.8396055 -0.0039,-0.8519663 -0.0056,-0.013089 0.01224,-0.045817 0.04274,-0.078405 0.05795,-0.061745 0.0648,-0.1137714 0.02051,-0.1553266 C 11.667384,6.2406288 11.000965,6.079672 10.660228,6.0256714 10.23124,5.9576964 9.8612692,5.909652 9.4460402,5.8679739 c -0.56793,-0.057005 -0.553084,-0.054652 -0.544655,-0.086106 0.0039,-0.014894 0.0013,-0.033347 -0.0061,-0.04114 -0.02639,-0.028018 -1.834925,-0.064952 -2.962251,-0.06048 -0.22106,8.786e-4 -0.598507,6.29e-4 -0.838777,-5.474e-4 -0.764017,-0.00372 -1.866287,0.025728 -1.9428277,0.051909 -0.016634,0.00569 -0.023924,0.057179 -0.02606,0.1839313 -0.00162,0.096824 -2.33e-4,0.1935284 0.0031,0.2148981 0.0033,0.021362 0.00527,0.5787122 0.00432,1.2385436 -9.489e-4,0.6598335 9.691e-4,1.2043664 0.00427,1.2100719 0.012591,0.02173 1.7762337,0.3052065 2.1666167,0.3482304 1.801359,0.1985061 3.66546,0.091474 5.1084228,-0.2933079 0.481287,-0.1283292 1.215171,-0.382096 1.226414,-0.4240621 0.0024,-0.00887 0.0069,-0.3892554 0.01012,-0.8454685 z m -0.383176,0.8657601 c -0.966111,0.3718106 -2.0948588,0.5985768 -3.2411338,0.651144 -1.077517,0.049408 -2.229714,-0.00185 -3.301847,-0.1469161 -0.560408,-0.075825 -1.398864,-0.2207978 -1.442112,-0.2493573 -0.01963,-0.01302 -0.0244,-0.2656843 -0.02001,-1.0628634 0.0014,-0.2504531 2.92e-4,-0.6056 -0.0024,-0.7892173 -0.0027,-0.1836153 -0.0014,-0.3471528 0.003,-0.3634201 0.0091,-0.033946 0.459772,-0.058347 1.586593,-0.0859 0.365833,-0.00894 0.766337,-0.018754 0.890007,-0.021806 0.44973,-0.011097 1.712233,0.020163 2.450099,0.060672 0.983337,0.053985 2.4469578,0.2207666 3.1641968,0.3605821 l 0.171247,0.033404 -4.71e-4,0.081109 c -2.89e-4,0.044607 7.65e-4,0.2908341 0.0022,0.5471694 0.0031,0.5395488 -5.5e-5,0.8336159 -0.0092,0.8675975 -0.0036,0.013138 -0.116146,0.066181 -0.250282,0.1178064 z M 11.475179,6.3659245 C 11.341729,6.3301645 9.7333232,6.1270838 9.0353652,6.0578704 7.6406052,5.9195447 5.6757132,5.891293 3.6013552,5.9797144 c -0.180065,0.00768 -0.328726,0.011259 -0.330359,0.00797 -0.0017,-0.0032 -0.0017,-0.032063 -8e-6,-0.063936 l 0.0029,-0.057922 0.149506,-0.015519 c 0.42395,-0.04399 0.734209,-0.049431 2.792331,-0.048914 0.209864,4.6e-5 0.744397,0.00583 1.187862,0.012822 0.443462,0.007 0.929539,0.013281 1.080168,0.013956 0.150626,6.815e-4 0.276839,0.00638 0.280469,0.012663 0.0036,0.00629 0.0025,0.02652 -0.0024,0.044968 -0.0084,0.030792 5.4e-5,0.034948 0.102704,0.05087 0.06144,0.00952 0.140892,0.017777 0.176563,0.018379 0.100334,0.00167 0.682194,0.060068 1.0422608,0.1046592 0.803244,0.09947 1.488903,0.2439587 1.471202,0.3100176 -0.0024,0.009 -0.03815,0.00725 -0.07944,-0.00382 z M 8.9340692,5.3459902 c -3.78e-4,-0.1331417 -0.0043,-0.2577712 -0.0088,-0.2769721 -0.01235,-0.052878 -0.0908,-0.1632574 -0.146284,-0.2058279 -0.03072,-0.023594 -0.04603,-0.050165 -0.04058,-0.070489 0.01104,-0.041275 -0.05312,-0.060264 -0.252875,-0.074798 -0.177275,-0.01291 -0.183692,-0.01556 -0.06432,-0.026573 0.05514,-0.00507 0.14505,0.00392 0.213009,0.021286 0.06478,0.016114 0.118287,0.027447 0.119117,0.024364 8.59e-4,-0.00314 -0.0046,-0.2998281 -0.01197,-0.6593547 -0.0074,-0.3595245 -0.01155,-0.8384995 -0.0092,-1.0643936 l 0.0043,-0.4107118 0.09941,0.015585 c 0.05469,0.00854 0.150267,0.013379 0.212434,0.010613 0.06217,-0.00275 0.172573,-0.00686 0.245355,-0.00916 0.192785,-0.00606 0.19343,-0.00654 0.261467,-0.1931873 0.03233,-0.088581 0.05994,-0.1896834 0.06152,-0.2245692 0.0033,-0.075774 -0.04478,-0.147099 -0.100419,-0.1489996 -0.03069,-9.836e-4 -0.0442,-0.0174 -0.05928,-0.071659 -0.01075,-0.038659 -0.01367,-0.068717 -0.0065,-0.066799 0.0072,0.0019 0.03316,-0.016243 0.05777,-0.040366 0.04447,-0.043608 0.04453,-0.044149 0.0074,-0.099793 -0.04481,-0.067294 -0.04327,-0.066758 -0.184449,-0.062323 l -0.112634,0.00355 0.05212,0.04864 0.05212,0.048634 -0.06572,0.00214 c -0.03614,0.00114 -0.07839,0.00623 -0.09386,0.011179 -0.01841,0.00589 -0.03071,-5.685e-4 -0.03552,-0.018877 -0.0041,-0.015333 -0.01436,-0.045238 -0.02275,-0.06654 -0.01468,-0.036887 -0.107877,-0.037809 -2.037392,-0.02021 -1.536957,0.014005 -2.03414,0.024908 -2.072454,0.045466 -0.02772,0.014856 -0.05211,0.023062 -0.05418,0.018201 -0.0021,-0.00492 -0.03179,-0.079522 -0.06603,-0.1659023 C 4.6552232,1.0640542 4.1563792,0.53996458 3.6044632,0.28351088 3.4171142,0.19646588 3.069634,0.10365838 2.8612181,0.08560098 c -0.22653,-0.020184 -0.5839643,0.00166 -0.8095608,0.049536 -0.2782269,0.059045 -0.5019622,0.1471462 -0.7752492,0.3052836 C 0.82212538,0.70327628 0.50612848,1.0345962 0.26393218,1.5019894 0.16441318,1.694043 0.03831128,2.1653931 0.02716928,2.386887 c -0.031732,0.631913 0.148356,1.2620805 0.4942641,1.7295127 0.3370324,0.455438 0.74150562,0.7538106 1.26166702,0.9307264 0.3067225,0.1043156 0.810569,0.1441845 1.0989695,0.086932 0.076607,-0.015209 0.1531896,-0.023932 0.1701765,-0.019376 0.018541,0.00501 0.029816,-0.00185 0.028216,-0.017176 -0.0017,-0.016072 0.027971,-0.030456 0.080385,-0.038952 0.045687,-0.00742 0.1380608,-0.030456 0.2052848,-0.051194 0.112046,-0.034555 0.09605,-0.017895 -0.02912,0.030335 -0.04687,0.01805 -0.05098,0.024991 -0.04298,0.072749 0.0051,0.03028 0.02281,0.056535 0.04163,0.061573 0.03065,0.00821 0.02859,0.023812 -0.03168,0.2381525 -0.07253,0.2579316 -0.0715,0.2620558 0.05976,0.2435046 0.1057,-0.014938 0.4544,-0.039072 0.708341,-0.049015 0.452394,-0.017708 2.139079,-0.024301 2.790836,-0.010907 0.37392,0.00769 0.814002,0.013502 0.977957,0.012936 0.163955,-5.745e-4 0.392415,0.00648 0.507688,0.015662 0.339214,0.027037 0.571298,0.021402 0.580808,-0.014086 0.0029,-0.010845 0.0049,-0.1286501 0.0046,-0.2617708 z m -0.21428,0.1585574 c -0.04934,0.00265 -0.188828,-3.859e-4 -0.309977,-0.00674 -0.121151,-0.00635 -0.375179,-0.011754 -0.564509,-0.012015 -0.189327,-2.559e-4 -0.648409,-0.00628 -1.020182,-0.013386 -0.37177,-0.00711 -0.953534,-0.00856 -1.292806,-0.00323 -0.339273,0.00533 -0.725034,0.00702 -0.857249,0.00375 -0.132216,-0.00327 -0.255198,-0.00538 -0.273294,-0.00471 -0.02961,0.00117 -0.02885,-0.013321 0.0072,-0.1428353 0.02208,-0.079218 0.0763,-0.2425359 0.120508,-0.3629123 l 0.08038,-0.2188427 0.30258,-0.017751 c 0.276904,-0.016236 0.309748,-0.022396 0.387042,-0.072457 0.04645,-0.030093 0.08795,-0.067696 0.09218,-0.083546 0.0042,-0.01587 0.03204,-0.055499 0.06177,-0.088085 0.04158,-0.045586 0.05623,-0.077605 0.06353,-0.1388601 0.0133,-0.1119033 0.01668,-1.1012134 0.0054,-1.5806883 -0.009,-0.3821315 -0.0077,-0.4017634 0.02855,-0.4158156 0.05383,-0.020845 1.551666,0.3788902 1.571384,0.4194981 0.0071,0.014727 0.01983,0.057903 0.0281,0.095947 0.02428,0.111583 0.08932,0.1728427 0.220953,0.2081178 l 0.112349,0.030103 0.151693,-0.087979 c 0.08346,-0.04839 0.153945,-0.096381 0.156694,-0.106653 0.0051,-0.01945 0.02357,-0.026596 0.324308,-0.1268493 0.100089,-0.033357 0.226338,-0.0812 0.280558,-0.1063148 0.05421,-0.025098 0.1063,-0.043567 0.115756,-0.041035 0.0094,0.0025 0.0337,-0.00982 0.05393,-0.027441 0.0202,-0.017617 0.03893,-0.027254 0.04162,-0.021425 0.0027,0.00588 0.0021,0.1355156 -0.0013,0.2881746 -0.0069,0.3106023 9.4e-5,1.4305692 0.01,1.599065 l 0.0064,0.1090045 -0.03868,-0.00291 c -0.185622,-0.014383 -0.513288,-0.00918 -0.656499,0.010393 -0.06376,0.00873 -0.124866,0.013669 -0.135782,0.010986 -0.01083,-0.00287 -0.0155,-0.042933 -0.01027,-0.089402 0.01175,-0.1033384 0.0041,-0.8087205 -0.009,-0.8330535 -0.0081,-0.015044 -0.769438,-0.01986 -0.858372,-0.00542 -0.0281,0.00455 -0.03041,0.081397 -0.0192,0.638137 0.007,0.3481242 0.0155,0.6377314 0.01887,0.6435707 0.0033,0.00585 0.197189,0.012313 0.43071,0.014366 0.423941,0.00374 0.424598,0.00368 0.437353,-0.04392 0.01191,-0.044354 0.02533,-0.048834 0.194076,-0.064349 0.247775,-0.022797 0.541623,-0.027776 0.606907,-0.010282 0.03986,0.010645 0.07722,0.047263 0.142762,0.1398114 0.08866,0.1251811 0.08877,0.1255871 0.09034,0.3031556 8.8e-4,0.097798 -3.84e-4,0.1850983 -0.0028,0.1940146 -0.0024,0.0089 -0.04471,0.018388 -0.09404,0.021013 z m 0.665442,-3.00447 c -0.03864,0.012362 -0.19522,0.00968 -0.291831,-0.00499 -0.01738,-0.00281 -0.02402,-0.022868 -0.01877,-0.057759 0.0044,-0.029533 0.0026,-0.065601 -0.0041,-0.080193 -0.0094,-0.020587 0.0068,-0.021456 0.07252,-0.00395 0.08231,0.02205 0.131622,0.017649 0.268702,-0.023538 l 0.06632,-0.019921 -0.02361,0.087833 c -0.01931,0.072084 -0.03188,0.090429 -0.06936,0.1024915 z m -0.05214,-0.3316583 c -0.07461,0.040972 -0.163534,0.044977 -0.224114,0.010099 -0.09966,-0.057395 -0.06676,-0.2296751 0.05566,-0.2914799 0.05748,-0.029006 0.07878,-0.030345 0.12893,-0.00798 0.07458,0.033229 0.132557,0.1383238 0.114179,0.2069055 -0.0081,0.030662 -0.03577,0.061093 -0.07468,0.08245 z m 0.0053,-0.1735159 c -0.0196,-0.083906 -0.186023,-0.067468 -0.209653,0.020723 -0.02511,0.093483 0.03275,0.1451656 0.141951,0.126903 0.05405,-0.00903 0.08454,-0.075557 0.06773,-0.1476111 z m 0.09967,-0.176816 c -0.05473,-0.014706 -0.07039,-0.047186 -0.02499,-0.051967 0.01804,-0.00185 0.04067,0.010907 0.05157,0.03045 0.01761,0.030431 0.01489,0.032611 -0.02657,0.021496 z m -1.331584,2.9061717 c -0.242319,0.016216 -0.311593,0.00672 -0.115229,-0.015773 0.140549,-0.016101 0.308908,-0.019048 0.316704,-0.00554 0.0023,0.00417 -0.08826,0.013738 -0.201468,0.021301 z m 0.818277,-2.4666909 c -0.107265,-0.02874 -0.188545,-0.00381 -0.407881,0.1250783 -0.170119,0.099968 -0.262361,0.1408063 -0.389273,0.1723296 -0.09148,0.022725 -0.212159,0.06577 -0.268174,0.09567 -0.15017,0.080142 -0.1796,0.074744 -0.691054,-0.1265538 C 6.9426812,2.4352604 6.8717942,2.4161621 6.2308612,2.2716431 5.5780842,2.1245606 5.5328042,2.1165574 5.4577792,2.1349467 c -0.06936,0.017016 -0.08469,0.029821 -0.118213,0.098686 -0.03171,0.06513 -0.03786,0.1046137 -0.03478,0.2231363 0.002,0.079183 0.0045,0.5043698 0.0054,0.9448356 0.0015,0.6993131 -0.0029,0.818387 -0.03466,0.939196 -0.03625,0.1382862 -0.03643,0.1383575 -0.106203,0.1624568 -0.08621,0.02973 -0.302503,0.040288 -0.520424,0.025398 -0.09047,-0.00619 -0.171239,-0.00531 -0.179453,0.00192 -0.0083,0.00722 -0.03946,0.083333 -0.06943,0.1690884 -0.05071,0.1451115 -0.30791,0.7734521 -0.31685,0.774046 -0.0023,5.938e-4 -0.136188,0.00903 -0.297749,0.01976 -0.161554,0.010723 -0.312501,0.019192 -0.335436,0.018821 -0.04145,-7.057e-4 -0.04141,-0.00178 0.01267,-0.2036147 l 0.05437,-0.2029362 0.237935,-0.13508 c 0.130865,-0.074286 0.296981,-0.1820773 0.369142,-0.2395218 0.343191,-0.2732092 0.613034,-0.6179785 0.799426,-1.0214106 0.0795,-0.1720583 0.19539,-0.5877501 0.216939,-0.7781462 0.03315,-0.2928532 0.02058,-0.6779259 -0.03016,-0.9235393 -0.01767,-0.085472 -0.02869,-0.1573866 -0.0245,-0.1598082 0.0087,-0.00493 0.129574,-0.00545 0.840609,-0.00336 0.276203,8.038e-4 0.716096,2.893e-4 0.977545,-0.00116 0.261447,-0.00144 0.797803,0.0011 1.1919,0.00567 0.394099,0.00456 0.748139,0.00403 0.786758,-0.00118 l 0.07022,-0.00945 -0.02776,0.1038888 c -0.02847,0.1061658 -0.0242,0.2158204 0.0111,0.2846084 0.01827,0.035637 0.01743,0.037918 -0.01128,0.030217 z m -1.252713,0.5950387 c -0.01159,-0.0031 -0.04442,0.011133 -0.07296,0.03164 l -0.05191,0.037291 0.01459,-0.056598 c 0.0086,-0.033919 0.02327,-0.054363 0.03627,-0.05103 0.01189,0.00326 0.04064,0.00551 0.06364,0.00559 0.02514,3.3e-6 0.03978,0.00785 0.03671,0.019329 -0.0028,0.010662 -0.01467,0.01686 -0.02625,0.01376 z m -0.204682,0.069943 c -0.05004,0.021637 -0.160858,-0.032153 -0.190183,-0.092436 -0.03588,-0.07362 -0.02495,-0.1156279 0.02227,-0.085425 0.01934,0.012432 0.07327,0.037809 0.119787,0.056609 0.06891,0.027825 0.08373,0.041145 0.08007,0.071759 -0.0025,0.020706 -0.01682,0.042977 -0.03188,0.049459 z m -2.67658,0.5540668 c -0.278699,0.7402555 -0.881627,1.2841265 -1.5989609,1.442347 -0.094214,0.020782 -0.1837339,0.034451 -0.1989337,0.030377 -0.015188,-0.0041 -0.030875,0.00473 -0.034855,0.019551 -0.010842,0.04047 -0.2257319,0.071603 -0.4770021,0.069095 C 1.3915027,5.0271211 0.42695748,4.1919275 0.19858278,3.0616168 0.11505938,2.6482422 0.13201218,2.3457672 0.26251848,1.9207568 0.44858408,1.3148177 0.78524278,0.87104148 1.2978179,0.55605118 c 0.4268849,-0.2623339 0.7959388,-0.3621266 1.3291534,-0.3593805 0.5439106,0.0028 1.0898969,0.2185946 1.5156799,0.5990837 0.339831,0.30366462 0.608628,0.74149832 0.727586,1.18510322 0.116599,0.4347744 0.08318,1.0637714 -0.07945,1.4957497 z m 0.02036,-0.5622735 c 0.02811,-0.228305 0.02726,-0.7313869 -0.0015,-0.8706086 -0.02193,-0.1061455 -0.03554,-0.1351577 -0.06733,-0.1436806 -0.02918,-0.00787 -0.05426,-0.048144 -0.09375,-0.1507671 -0.275879,-0.7170058 -0.963778,-1.27770862 -1.7112838,-1.39484822 -0.2291967,-0.035926 -0.3016276,-0.039693 -0.5348813,-0.027859 -0.6944943,0.035236 -1.4015316,0.439769 -1.78782122,1.02289062 -0.1447382,0.2184887 -0.2313488,0.4273408 -0.2998399,0.7230405 -0.084829,0.3662423 -0.090711,0.601706 -0.024248,0.9707397 0.1344249,0.7463335 0.6126915,1.3540042 1.31888682,1.6757263 0.2032385,0.092566 0.6470776,0.2020911 0.8738884,0.2156272 0.223674,0.013335 0.5095701,-0.053046 0.846243,-0.1965107 0.07089,-0.030196 0.140598,-0.051785 0.154905,-0.047953 0.04184,0.011239 0.426289,-0.2328742 0.570283,-0.3620789 0.259871,-0.2331965 0.481073,-0.5535865 0.627264,-0.9085328 0.042582,-0.1033733 0.114177,-0.3833601 0.129192,-0.5051865 z m -0.385012,0.4645652 c -0.09475,0.2241503 -0.231323,0.4439434 -0.379908,0.6113641 -0.08811,0.099284 -0.335449,0.3189473 -0.343474,0.3050495 -0.0034,-0.00576 0.02251,-0.068475 0.0575,-0.139308 0.106547,-0.2157856 0.369443,-0.8003431 0.578895,-1.2871768 0.109197,-0.2538145 0.210199,-0.47794 0.224434,-0.498055 0.02285,-0.032276 0.02617,-0.023504 0.02823,0.074971 0.0061,0.2901697 -0.06628,0.6979225 -0.165689,0.9331472 z m 0.238327,-1.2391201 c -0.0401,-0.091199 -0.04494,-0.1237209 -0.01721,-0.1162958 0.01356,0.00368 0.03017,0.036569 0.03688,0.073188 0.01644,0.089734 0.0085,0.1071481 -0.01968,0.043103 z m -0.208962,0.1859907 c -0.03509,0.077611 -0.161244,0.3495517 -0.280343,0.6042982 -0.208048,0.4449998 -0.316159,0.6868814 -0.590651,1.3215429 -0.08169,0.18885 -0.137936,0.2986445 -0.159326,0.3109683 -0.02942,0.016976 -0.03007,0.012785 -0.006,-0.037723 0.0371,-0.077622 0.276866,-0.653556 0.631324,-1.5164763 0.436302,-1.0621728 0.472943,-1.1390834 0.514616,-1.0802421 0.02459,0.034748 -0.02193,0.2035735 -0.109695,0.3976498 z"
   id="path3408" /></svg>
