<?xml version="1.0" encoding="UTF-8" standalone="no"?>
<!-- Generator: Adobe Illustrator 16.0.0, SVG Export Plug-In . SVG Version: 6.00 Build 0)  -->

<svg
   version="1.1"
   x="0px"
   y="0px"
   width="77.578842"
   height="26.76951"
   viewBox="0 0 77.578842 26.76951"
   enable-background="new 0 0 96.5 32"
   xml:space="preserve"
   id="svg6070"
   xmlns="http://www.w3.org/2000/svg"
   xmlns:svg="http://www.w3.org/2000/svg"><defs
   id="defs6074" />

<g
   id="guides"
   transform="translate(-6.4402344,-3.4288192)">
</g>
<path
   style="fill:#ffffff;fill-opacity:1;stroke-width:0.0403402"
   d="m 34.302198,26.564825 c 0.354766,-0.111069 0.653226,-0.210119 0.663221,-0.220117 0.01005,-0.01 -0.0243,-0.131198 -0.07617,-0.269333 -0.836698,-2.227217 -1.473761,-4.737108 -1.881197,-7.411516 -0.128771,-0.845228 -0.258552,-1.974076 -0.258552,-2.248904 0,-0.193474 -0.0079,-0.21164 -0.09077,-0.20954 -0.04989,0.0013 -0.43566,0.07904 -0.857216,0.17283 -0.682869,0.151932 -0.765991,0.179179 -0.762135,0.249827 0.0079,0.142232 0.619205,3.845441 0.803625,4.867417 0.420098,2.3279 0.848562,4.039962 1.169128,4.671623 0.157584,0.310517 0.422612,0.605488 0.541219,0.602373 0.0571,-0.0016 0.394073,-0.0936 0.748847,-0.20466 z m 1.735017,-0.508685 c 0.354991,-0.0955 1.077504,-0.261799 1.605579,-0.369559 0.528081,-0.107762 0.968775,-0.204557 0.97932,-0.215106 0.01055,-0.01055 -0.03749,-0.171486 -0.106783,-0.357634 -0.549103,-1.475419 -0.872638,-2.601296 -1.269322,-4.417059 -0.399977,-1.83083 -0.783668,-4.350395 -0.784864,-5.153898 0,-0.225588 -0.0045,-0.235535 -0.09113,-0.212612 -0.04989,0.01323 -0.796223,0.182512 -1.658445,0.37619 -1.096748,0.246359 -1.574504,0.369955 -1.590421,0.411444 -0.01252,0.03261 0.0079,0.433053 0.04512,0.889857 0.183877,2.250262 0.737088,4.88267 1.546999,7.361246 0.258912,0.792316 0.593671,1.727506 0.650145,1.816182 0.01964,0.03088 0.226764,-0.0088 0.673822,-0.129051 z m 3.284402,-0.65822 c 0.384112,-0.08666 0.472369,-0.150563 0.608065,-0.440255 l 0.09318,-0.198974 -0.145304,-0.516074 c -0.513472,-1.823695 -1.964537,-8.539977 -1.964537,-9.09296 0,-0.135644 -0.01162,-0.15871 -0.07059,-0.14097 -0.03883,0.01166 -0.270281,0.06987 -0.514337,0.129339 -0.244049,0.05947 -0.46051,0.123288 -0.481,0.141814 -0.04586,0.04143 0.0312,1.146756 0.13894,1.993355 0.301529,2.369479 0.990095,5.251625 1.775576,7.43213 0.133311,0.370063 0.233465,0.696056 0.222584,0.724425 -0.01083,0.02837 -0.01583,0.05005 -0.01094,0.04818 0.005,-0.0018 0.161641,-0.03788 0.348396,-0.08001 z M 21.40841,23.046035 c 0.07462,-0.027 0.204619,-0.106987 0.288902,-0.177747 0.126397,-0.10612 0.175065,-0.194147 0.277829,-0.502614 0.147729,-0.443425 0.151494,-0.497712 0.03867,-0.558082 -0.07639,-0.04089 -0.08358,-0.07118 -0.06507,-0.273717 0.01145,-0.125258 0.104987,-0.454653 0.207841,-0.731992 0.382383,-1.03108 0.989954,-2.134523 2.110947,-3.833844 l 0.550618,-0.83468 0.526678,-0.02603 c 1.177091,-0.05817 3.879172,-0.09917 4.540518,-0.06889 l 0.705957,0.03232 3.832305,-0.843062 c 2.107765,-0.463684 3.87315,-0.86011 3.923064,-0.880946 0.08796,-0.03672 0.09075,-0.05507 0.08998,-0.593425 0,-0.305547 -0.01751,-0.673536 -0.03794,-0.817751 -0.02043,-0.144217 -0.05873,-0.596891 -0.08512,-1.005947 l -0.04798,-0.743736 0.156511,-0.139517 c 0.08609,-0.07674 0.315375,-0.283411 0.509516,-0.459283 l 0.35297,-0.319766 V 8.7373048 7.2072858 h -9.102911 -9.102924 l -0.487937,-0.126473 c -0.810966,-0.210198 -1.149193,-0.403111 -1.717305,-0.979494 l -0.30153,-0.305936 H 10.146043 1.7200952 L 1.374134,5.6239358 C 1.0631371,5.4698178 0.99861436,5.4524898 0.73574186,5.4524898 c -0.3536385,0 -0.4726101,0.06987 -0.6198848,0.364064 -0.077877,0.155553 -0.1027078,0.277315 -0.1147461,0.562665 -0.021378,0.506113 0.2706129,4.9894822 0.4584906,7.0404332 0.2272921,2.481257 0.56396984,4.686625 0.85289444,5.586697 0.112585,0.350732 0.1209981,0.363552 0.2558633,0.389798 0.076698,0.01493 0.1757615,0.03826 0.2201363,0.05183 0.1445077,0.04422 0.3217334,-0.118053 0.7747235,-0.709366 0.2439652,-0.318453 0.6198728,-0.787764 0.8353512,-1.042915 0.9484183,-1.123006 2.2437813,-2.787435 2.4735023,-3.178224 l 0.111789,-0.190171 0.02014,0.788584 c 0.02261,0.884797 0.05615,1.006548 0.27706,1.006548 0.122766,0 0.247361,-0.107278 0.247361,-0.212985 0,-0.08059 1.070091,-0.978662 1.70621,-1.431945 1.024604,-0.730099 1.9285304,-1.211218 2.8522234,-1.518115 0.663798,-0.22055 1.118517,-0.288616 1.53697,-0.23007 0.335123,0.04689 0.70497,0.164173 0.902349,0.28616 0.07248,0.0448 0.140948,0.08145 0.152134,0.08145 0.01123,0 0.03249,-0.07715 0.04742,-0.171446 0.01493,-0.09429 0.07978,-0.343899 0.14421,-0.554676 0.122356,-0.400357 0.261717,-0.962057 0.302652,-1.219855 l 0.02397,-0.150844 1.720156,-0.01051 1.720174,-0.01051 0.05253,-0.2017 c 0.05782,-0.221861 0.154705,-0.739511 0.194427,-1.0387562 l 0.02542,-0.191616 h 0.220664 c 0.142111,0 0.225687,0.01795 0.234784,0.05042 0.01666,0.05959 0.09017,0.6603072 0.146831,1.2001172 0.05738,0.546753 0.0798,0.589232 0.326195,0.618414 0.312221,0.03698 0.869742,0.219651 1.212481,0.397269 0.652367,0.338078 1.044342,0.779461 1.104168,1.243361 0.02222,0.172505 0.0097,0.202588 -0.254365,0.605101 -0.290519,0.442994 -1.250151,1.806561 -2.995113,4.255876 -1.239599,1.739949 -1.293751,1.819586 -1.604849,2.360184 -0.256767,0.446179 -0.430906,0.888827 -0.394024,1.001626 0.03328,0.101839 0.673666,0.462891 1.374651,0.775043 1.065163,0.474325 2.207509,0.852106 2.978725,0.985075 0.42177,0.07272 0.957651,0.07577 1.148958,0.0065 z m 4.332875,-8.2359 c -0.236597,-0.09886 -0.387711,-0.23583 -0.516189,-0.467896 -0.115745,-0.209077 -0.119932,-0.234937 -0.119982,-0.741057 -3.9e-5,-0.341252 0.01925,-0.5791 0.05523,-0.680969 0.07042,-0.199378 0.295782,-0.449499 0.506721,-0.56241 0.161602,-0.0865 0.195914,-0.08802 2.236552,-0.09933 2.295099,-0.01272 2.343671,-0.0084 2.642468,0.2392 0.08606,0.0713 0.199338,0.221684 0.251733,0.334191 0.08407,0.180566 0.09527,0.263704 0.09542,0.708809 0,0.62905 -0.03754,0.768364 -0.275511,1.017114 -0.305335,0.319131 -0.231535,0.310334 -2.619571,0.312338 -1.805208,0.0015 -2.130359,-0.0071 -2.25688,-0.05999 z m 7.56658,-1.058287 c -0.126901,-0.0873 -0.221073,-0.196682 -0.292134,-0.339289 L 32.910868,13.20211 v -2.312929 c 0,-2.4942382 -0.0011,-2.4764092 0.213705,-2.7070282 0.189988,-0.20368 0.382199,-0.268689 0.794786,-0.268809 0.341915,-8.1e-5 0.402824,0.0114 0.564813,0.106644 0.09987,0.05872 0.215057,0.14374 0.255964,0.188944 0.179291,0.198126 0.184089,0.267513 0.185953,2.6916292 l 0.0017,2.301549 -0.10488,0.210449 c -0.102113,0.204917 -0.333833,0.411302 -0.520606,0.463681 -0.04428,0.01241 -0.243998,0.01849 -0.443875,0.01351 -0.335382,-0.0084 -0.377815,-0.01898 -0.550652,-0.137899 z m 1.001943,-0.276257 c 0.258562,-0.127512 0.255055,-0.09185 0.254404,-2.583291 0,-2.4224792 0.0039,-2.3695782 -0.214148,-2.5314382 -0.165171,-0.12264 -0.696232,-0.12264 -0.861397,0 -0.217982,0.16186 -0.213514,0.108959 -0.214149,2.5314382 0,2.500819 -0.005,2.458683 0.260735,2.584745 0.174465,0.08279 0.605382,0.08198 0.774555,-0.0015 z M 11.611303,8.8813938 v -0.181531 h 0.988339 0.988321 v 0.181531 0.181531 h -0.988321 -0.988339 z m -3.1465124,0 v -0.181531 h 1.008492 1.0085034 v 0.181531 0.181531 H 9.4732826 8.4647906 Z m -3.065853,0 v -0.181531 h 0.968163 0.968156 v 0.181531 0.181531 h -0.968156 -0.968163 z m -3.1061829,0 V 8.6998628 H 3.281087 4.2694146 v 0.181531 0.181531 H 3.281087 2.2927547 Z M 14.717497,7.9132328 v -0.181532 h 0.988327 0.988338 v 0.181532 0.18153 h -0.988338 -0.988327 z m -3.106194,0 v -0.181532 h 0.988339 0.988321 v 0.181532 0.18153 h -0.988321 -0.988339 z m -3.1465124,0 v -0.181532 h 1.008492 1.0085034 v 0.181532 0.18153 H 9.4732826 8.4647906 Z m -3.065853,0 v -0.181532 h 0.968163 0.968156 v 0.181532 0.18153 H 6.3671006 5.3989376 Z M 42.814347,10.956969 c 0.332807,-0.01539 0.655027,-0.03033 0.716037,-0.0332 l 0.110941,-0.0052 V 9.3453048 7.7720438 H 42.794184 41.94703 v 1.613603 1.6136032 l 0.131105,-0.0071 c 0.07212,-0.0039 0.403412,-0.01974 0.736212,-0.03513 z M 41.543634,7.5273818 c 0,-3.0447043 -0.0073,-3.4704278 -0.05895,-3.4275821 -0.03244,0.026908 -0.07054,0.085467 -0.08471,0.1301201 -0.0142,0.044659 -0.06944,0.1455535 -0.122827,0.2242125 l -0.09706,0.1430157 0.01027,3.1909648 0.01027,3.1909652 0.171451,0.01241 0.17144,0.0124 z m 3.489419,3.3497062 c 0.377171,-0.01426 0.690317,-0.02892 0.695867,-0.03257 0.0056,-0.0036 0.01005,-0.696445 0.01005,-1.5395532 v -1.532922 h -0.847142 -0.847137 v 1.573262 1.5732632 l 0.151276,-0.0078 c 0.08319,-0.0043 0.459882,-0.01944 0.837057,-0.03371 z m 2.592329,-0.06916 0.292966,-0.01393 -0.01055,-1.5008902 -0.01055,-1.50089 -0.877398,-0.01087 -0.877397,-0.01088 v 1.53371 1.5337082 l 0.595017,-0.008 c 0.327261,-0.0045 0.726851,-0.01428 0.88797,-0.02195 z m 1.581885,-0.05595 c 0.387737,-0.01841 0.728339,-0.04243 0.756888,-0.05339 0.04125,-0.01583 0.04973,-0.316024 0.04131,-1.4631482 l -0.01055,-1.443221 -0.857233,-0.01088 -0.857233,-0.01088 v 1.513554 1.5135552 l 0.110941,-0.006 c 0.06101,-0.0033 0.428178,-0.02111 0.815905,-0.03952 z m 2.855033,-0.103921 0.09077,-0.01748 V 9.2013118 7.7720448 h -0.887487 -0.887471 v 1.452242 1.4522422 l 0.796717,-0.0055 c 0.438185,-0.0031 0.837556,-0.01336 0.887471,-0.02297 z m 2.017011,-0.0414 0.171441,-0.01544 V 9.1808318 7.7704468 l -0.857217,0.01088 -0.857233,0.01088 -0.01055,1.421987 -0.01055,1.4219882 0.696378,-0.0071 c 0.383007,-0.0039 0.773533,-0.01399 0.867829,-0.02249 z m 1.926234,-0.03036 c 0.02217,-0.0078 0.108411,-0.02555 0.191622,-0.03947 l 0.151275,-0.0253 V 9.1409918 7.7704548 l -0.857232,0.01088 -0.857234,0.01088 v 1.391732 1.3917312 l 0.665624,0.0074 c 0.366085,0.0041 0.683755,10e-4 0.705945,-0.0068 z m 1.168719,-0.52503 0.379645,-0.3428912 h 0.631478 0.631479 l 0.673503,-0.342889 c 0.588741,-0.299746 0.699829,-0.342891 0.882858,-0.342891 0.184891,0 0.211488,0.01061 0.227432,0.09077 0.07917,0.398207 0.1449,0.791742 0.144872,0.867312 -1.2e-5,0.05788 0.02436,0.09076 0.0673,0.09076 0.179039,0 0.928653,-0.2319416 1.328883,-0.4111756 l 0.448214,-0.200726 0.08995,-0.410086 c 0.04945,-0.225546 0.09859,-0.441852 0.109179,-0.48068 0.01819,-0.06674 0.28646,-0.07059 4.912468,-0.07059 h 4.893241 l 0.11097,0.167689 0.110974,0.167688 1.45757,-0.02791 c 2.244533,-0.04299 2.747039,-0.09712 2.961815,-0.319071 0.373607,-0.386098 0.44909,-1.091379 0.19037,-1.778734 -0.181216,-0.481466 0.107473,-0.428361 -2.328631,-0.428361 -2.055005,0 -2.131829,0.0028 -2.259416,0.08053 -0.130219,0.07939 -0.20651,0.08053 -5.406545,0.08068 l -5.274464,1.29e-4 v -0.09764 c 0,-0.446673 -0.339467,-4.1111609 -0.448674,-4.8434832 C 61.661695,1.1844992 61.655695,1.1725314 61.432038,0.94886082 61.045512,0.56233192 60.585821,0.52402352 60.117651,0.83932202 59.821699,1.0386386 59.169697,1.8782004 58.16418,3.354796 57.669402,4.08137 57.209728,4.7061865 57.169989,4.7061865 c -0.0064,0 -0.09642,-0.090765 -0.200186,-0.2016994 -0.103768,-0.1109334 -0.204333,-0.2016994 -0.223481,-0.2016994 -0.01925,0 -0.0348,1.3640179 -0.0348,3.0456729 0,2.062872 0.01342,3.0456754 0.04153,3.0456754 0.02284,0 0.212398,-0.1543 0.421214,-0.34289 z M 74.81728,7.5439308 c -0.09733,-0.08808 -0.09389,-0.276181 0.0069,-0.376977 0.07468,-0.07467 0.13403,-0.08064 0.796717,-0.08009 0.817718,5.62e-4 0.910212,0.02414 0.930662,0.236054 0.0082,0.08519 -0.01241,0.161958 -0.05668,0.210866 -0.06382,0.07051 -0.133378,0.07691 -0.836715,0.07691 -0.657199,0 -0.777691,-0.0096 -0.840896,-0.06676 z M 57.929176,5.6037658 c 0.03317,-0.03882 0.644645,-0.7914382 1.358841,-1.6724715 0.71418,-0.8810324 1.316132,-1.6127617 1.337672,-1.6260656 0.02503,-0.015496 0.03912,0.5862556 0.03912,1.6724706 v 1.6966635 h -1.397974 c -1.327508,0 -1.394955,-0.0035 -1.337672,-0.07059 z m -17.111663,1.88828 c 0,-1.789569 -0.01386,-2.7089687 -0.04108,-2.7257976 -0.02261,-0.013974 -0.240429,-0.035909 -0.484081,-0.04876 l -0.442988,-0.023364 v 2.7491656 2.7491682 h 0.484076 0.484082 z M 56.348442,5.7603338 V 4.3117791 l -0.13111,-0.022445 c -0.0721,-0.01235 -0.457862,-0.027957 -0.857228,-0.034693 l -0.726128,-0.012248 v 1.4723617 1.472363 l 0.857234,0.01088 0.857232,0.01088 z m -2.09769,-0.04482 v -1.49339 l -0.352976,-1.299e-4 c -0.194136,-7.98e-5 -0.584652,-0.011979 -0.867801,-0.026426 l -0.514847,-0.026259 0.01055,1.5089179 0.01055,1.508916 0.857233,0.01088 0.857215,0.01088 z M 52.153071,5.7007328 V 4.1941816 l -0.490412,-0.026371 c -0.269736,-0.014502 -0.669091,-0.026371 -0.887488,-0.026371 h -0.397059 v 1.5329216 1.532923 h 0.887471 0.887488 z m -2.164919,1.47966 c 0.01482,-0.01479 0.02688,-0.703493 0.02688,-1.530449 v -1.503559 l -0.171437,-0.021416 c -0.0943,-0.011779 -0.484587,-0.027679 -0.867319,-0.035322 L 48.28041,4.0757338 v 1.565774 1.565773 h 0.840424 c 0.462233,0 0.852513,-0.01209 0.867307,-0.02689 z m -2.097674,0 c 0.01482,-0.01479 0.02688,-0.714251 0.02688,-1.554358 0,-1.1867421 -0.01123,-1.5309505 -0.05039,-1.5430928 C 47.839248,4.074312 47.439872,4.05595 46.97949,4.042051 L 46.142426,4.016794 v 1.5952468 1.595248 h 0.860594 c 0.473323,0 0.872695,-0.01209 0.887489,-0.02689 z M 45.739,5.6200188 V 4.0327494 L 45.285179,4.0065924 C 45.035573,3.9922104 44.654363,3.9803614 44.438037,3.9802594 L 44.044721,3.9800637 V 5.5936659 7.2072678 H 44.891857 45.739 Z m -2.097675,-0.02387 V 3.9850249 l -0.171456,-0.021378 c -0.09429,-0.011766 -0.4755,-0.027781 -0.847137,-0.035621 L 41.94703,3.9137829 v 1.6467469 1.646748 h 0.847154 0.847141 z m -4.373994,-0.17391 c -0.01291,-0.6711577 -0.03699,-1.6559602 -0.05354,-2.18845 L 39.183766,2.2656278 39.032479,1.9561294 C 38.844585,1.5717187 38.63478,1.3786783 38.34145,1.3203176 38.137432,1.2797322 36.238153,1.1081861 32.507479,0.79340252 28.735836,0.47516072 25.9313,0.22877382 24.654312,0.10348052 c -0.713853,-0.0700455 -1.345624,-0.1153695 -1.403945,-0.1007332 -0.168068,0.0421813 -0.679401,0.5747667 -0.817027,0.8509784 -0.131252,0.26339118 -0.273649,0.67736588 -0.316262,0.91936208 -0.02245,0.1275554 -0.05455,0.1668761 -0.19358,0.2372055 -0.09164,0.046366 -0.181165,0.1091686 -0.198905,0.139564 -0.01773,0.030397 -0.05595,0.055264 -0.08498,0.055264 -0.05376,0 -0.365721,0.7596372 -0.48045,1.1698595 -0.03412,0.1220309 -0.09155,0.3250868 -0.127615,0.4512383 l -0.06555,0.2293668 -0.327576,0.028579 c -0.245357,0.021406 -0.384021,0.05815 -0.552555,0.1464182 -0.422729,0.221402 -0.567394,0.4389653 -0.632292,0.9508967 -0.02194,0.172898 -0.05074,0.232113 -0.152746,0.314121 l -0.125746,0.10106 0.325061,0.311149 c 0.381352,0.36504 0.596762,0.490721 1.082157,0.631382 l 0.356596,0.103339 h 9.175982 9.17596 z M 25.460665,4.3405767 C 25.127574,4.2147258 25.031589,3.9622817 25.05112,3.2634215 c 0.01302,-0.4655777 0.01891,-0.4945989 0.135156,-0.661682 0.07097,-0.1020118 0.196263,-0.2125304 0.301025,-0.2655151 l 0.179442,-0.090765 h 5.733566 5.733559 l 0.177804,0.093898 c 0.114617,0.060535 0.219193,0.1607474 0.294324,0.2820527 0.100693,0.1625614 0.119122,0.2389601 0.13555,0.5616307 0.02161,0.4243326 -0.03642,0.8101749 -0.144182,0.9584016 -0.0403,0.055469 -0.13555,0.1325901 -0.211617,0.1713828 -0.129804,0.066186 -0.49795,0.070537 -5.974932,0.070593 -4.025868,4.17e-5 -5.871826,-0.01325 -5.95015,-0.04284 z"
   id="path6088" /></svg>
