<?xml version="1.0" encoding="UTF-8" standalone="no"?>
<!-- Generator: Adobe Illustrator 16.0.0, SVG Export Plug-In . SVG Version: 6.00 Build 0)  -->

<svg
   version="1.1"
   x="0px"
   y="0px"
   width="37.211422"
   height="25.411381"
   viewBox="0 0 37.211422 25.411381"
   enable-background="new 0 0 69.25 32"
   xml:space="preserve"
   id="svg1009"
   xmlns="http://www.w3.org/2000/svg"
   xmlns:svg="http://www.w3.org/2000/svg"><defs
   id="defs1013" />

<g
   id="guides"
   transform="translate(-0.34660741,-2.7118105)">
</g>
<path
   style="fill:#ffffff;stroke-width:0.0291854;fill-opacity:1"
   d="m 8.8439932,25.391335 c 1.3804728,-0.07116 1.9039408,-0.160025 2.2162388,-0.376251 0.26752,-0.185222 0.264278,-0.163891 0.139017,-0.914256 -0.05972,-0.357725 -0.124291,-0.825167 -0.143504,-1.03876 -0.03175,-0.352931 -0.03001,-0.407496 0.01903,-0.598298 0.1012,-0.393673 0.821074,-2.750871 1.534773,-5.02553 0.206494,-0.658128 0.502497,-1.616866 0.657785,-2.130529 0.155289,-0.513661 0.301339,-0.949121 0.324553,-0.96769 0.02322,-0.01857 0.227744,-0.09551 0.454503,-0.170956 0.619319,-0.206086 0.903265,-0.205998 1.451855,4.49e-4 0.206402,0.07767 0.706359,0.140795 1.955416,0.246879 1.35287,0.114899 2.107985,0.151286 3.476928,0.167532 1.750749,0.02077 2.594773,-0.03281 3.142388,-0.199538 0.380424,-0.115817 0.381382,-0.116734 0.934438,-0.889453 0.0709,-0.09905 0.09697,-0.185765 0.149215,-0.496149 0.106896,-0.635149 0.240995,-1.112863 0.490593,-1.747831 0.203481,-0.517637 0.34701,-0.803959 0.577893,-1.152822 0.46037,-0.6956225 0.836858,-1.0125625 1.385247,-1.1661565 0.205975,-0.0577 0.345844,-0.06371 2.407581,-0.103531 1.203891,-0.02326 2.8587,-0.05845 3.677352,-0.07818 1.694632,-0.04087 2.557232,-0.04664 2.687104,-0.01798 l 0.08962,0.01978 0.272275,-0.603818 c 0.318469,-0.706273 0.303031,-0.61642 0.336853,-1.9609448 0.01797,-0.7134162 0.02875,-0.8516645 0.07595,-0.9714923 0.05195,-0.131906 0.05498,-0.2460447 0.05424,-2.0429741 L 37.210244,1.269574 36.920358,1.0579801 36.630467,0.8463874 h -0.423509 -0.42351 l -0.0081,-0.3867045 -0.0081,-0.3867068 -0.844008,-0.00776 c -0.979368,-0.00894 -0.843522,-0.053536 -1.187582,0.3893337 L 33.5219,0.7296313 H 19.957037 6.3921794 l -0.00177,-0.10945 C 6.3895419,0.5599838 6.3660644,0.4387851 6.3385018,0.3508426 L 6.2883667,0.1909491 5.9827705,0.0972458 C 5.680778,0.0046488 5.6698506,0.0035189 5.0569836,0.0017653 L 4.4367918,0 V 0.364818 0.7296325 H 3.4641298 2.4914654 L 2.4561589,0.9212241 C 2.4367522,1.026602 2.3885353,1.2151162 2.3490392,1.3401493 2.309543,1.4651812 2.2438612,1.7171503 2.2030658,1.90008 2.0984999,2.3690486 2.0799111,2.4171936 1.9842377,2.4666685 1.8331296,2.5448017 1.7607231,2.5226881 1.5525669,2.334826 1.4071514,2.2035837 1.3365079,2.1595272 1.2705849,2.1589646 1.2222033,2.1585162 1.0766595,2.1342383 0.94714959,2.1049339 L 0.71167669,2.0516565 0.41451769,2.2104437 0.11735745,2.3692345 V 2.7294321 3.0896307 L 0.68143089,3.7945015 1.2455067,4.4993732 1.1647844,4.7961027 C 1.1203807,4.9593044 0.99199119,5.4277327 0.87947189,5.8370568 0.76695019,6.2463821 0.57571046,6.960601 0.454494,7.4242125 l -0.22038873,0.842929 v 0.431549 0.431547 l 0.0948449,0.05842 c 0.0521712,0.03214 0.20648623,0.08668 0.34292802,0.121231 0.3267823,0.08274 1.06636761,0.333335 1.34619251,0.456138 0.6709884,0.2944675 1.1316975,0.6563355 1.4423378,1.1329005 0.3374648,0.517716 0.3895242,0.889672 0.2183515,1.560086 -0.1287532,0.50428 -0.5905262,1.781418 -1.1239349,3.108493 -0.8447832,2.101747 -1.3270399,3.381446 -1.76634391,4.687099 -0.099917,0.296961 -0.31819814,0.881682 -0.48507406,1.299378 L 0,22.313432 l 0.00765,1.293754 0.00765,1.29375 0.14592507,0.05591 c 0.11003843,0.04216 0.33610914,0.07026 0.91933643,0.114287 0.4253768,0.0321 0.9704142,0.07773 1.2111923,0.101388 1.7447129,0.171414 5.219876,0.287458 6.5521035,0.218789 z M 1.228629,23.961735 C 0.83456319,23.84872 0.79836119,23.202681 1.175728,23.017628 c 0.1657673,-0.08129 0.5371123,-0.07448 0.6921948,0.01267 0.1511468,0.08495 0.2342605,0.250379 0.2342605,0.466271 0,0.329152 -0.1894343,0.493778 -0.5681925,0.493778 -0.1130865,0 -0.2504957,-0.01287 -0.305362,-0.02861 z m 0.5427955,-0.309239 c 0.063305,-0.0633 0.072707,-0.09365 0.059515,-0.191969 -0.024667,-0.183864 -0.084641,-0.228999 -0.3043133,-0.228999 -0.1029065,0 -0.211122,0.01286 -0.2404817,0.02856 -0.080875,0.04327 -0.1249518,0.197235 -0.088289,0.308335 0.038025,0.115228 0.1314294,0.159246 0.3379121,0.159246 0.1335207,0 0.1731005,-0.01263 0.2356541,-0.07518 z M 1.42816,22.57559 C 1.367351,22.453815 1.365455,22.433592 1.400279,22.276441 c 0.050806,-0.229299 0.4633313,-1.486243 0.6875071,-2.09478 1.3280874,-3.605139 1.7094935,-4.575669 2.6150333,-6.654253 0.5007325,-1.149397 0.6472319,-1.512945 0.6431257,-1.595981 -0.00436,-0.08876 0.025668,-0.151811 0.1721719,-0.361222 0.4260735,-0.609002 0.6373556,-0.866461 1.0726558,-1.30711 0.5562048,-0.5630405 0.9836259,-0.8557125 1.5673685,-1.0732385 0.1444669,-0.05383 0.3044981,-0.125775 0.3556255,-0.159868 0.1242397,-0.08284 0.5344677,-0.177474 0.9318018,-0.214943 0.6597454,-0.06222 3.7276074,-0.0305 3.8695804,0.04 0.03694,0.01835 0.0709,0.05929 0.07545,0.09099 0.01365,0.09499 -1.377809,4.4910405 -2.105993,6.6535225 -0.637298,1.892577 -0.914765,2.663829 -1.243853,3.457414 -0.2793254,0.673589 -0.3722364,1.286299 -0.3984757,2.627726 -0.00989,0.505636 -0.029846,0.942321 -0.044333,0.970412 -0.024915,0.04827 -0.2481937,0.05108 -4.0654504,0.05108 H 1.4933992 Z m 7.9220759,-0.372845 c 0.010356,-0.132429 0.018878,-0.372112 0.01903,-0.532632 4.497e-4,-0.37082 0.046875,-1.013796 0.1040482,-1.438863 0.07565,-0.562347 0.1822035,-0.916652 0.5482869,-1.82309 0.183206,-0.453629 0.81698,-2.315769 1.417788,-4.165711 0.221561,-0.682208 0.615874,-1.890481 0.876255,-2.685051 0.441072,-1.345972 0.760215,-2.3620915 0.760215,-2.4204395 0,-0.06444 -2.559633,-0.137004 -3.2833484,-0.09308 -0.5988271,0.03634 -1.0278169,0.121211 -1.1577447,0.229042 -0.02249,0.01866 -0.1389296,0.06906 -0.2587633,0.112004 C 7.498901,9.6991965 6.8489718,10.251446 5.9570649,11.440327 5.7953485,11.655893 5.6651088,11.84594 5.667651,11.862651 c 0.00258,0.01671 -0.025103,0.09605 -0.061434,0.17631 -0.036331,0.08026 -0.194841,0.461128 -0.3522512,0.846374 -0.2732401,0.668746 -0.398099,0.966411 -1.3348403,3.182274 -0.6413533,1.51712 -2.3308516,6.247173 -2.2678179,6.349164 0.00989,0.016 1.5570638,0.02674 3.8483593,0.02674 h 3.8318228 z m 10.4906231,-8.865707 -3.612663,-0.117406 -0.149774,-0.08832 c -0.463269,-0.273148 -0.773862,-0.542972 -0.977339,-0.849041 -0.159579,-0.240044 -0.223168,-0.397878 -0.317867,-0.78897 -0.06087,-0.251359 -0.0666,-0.318778 -0.04371,-0.51391 0.05984,-0.510112 0.311723,-1.0513205 0.780114,-1.6761905 l 0.191703,-0.255746 h 0.871169 c 0.709798,0 0.871168,0.0073 0.871168,0.0392 0,0.02156 -0.02679,0.116782 -0.05952,0.211593 -0.09714,0.281359 -0.196509,0.7088855 -0.23001,0.9895725 -0.145961,1.222973 0.241904,2.102785 1.122871,2.547053 0.343592,0.173272 0.895677,0.298165 1.319071,0.298399 l 0.211595,1.16e-4 v -0.189703 c 0,-0.178565 -0.0039,-0.189706 -0.06721,-0.189706 -0.08704,0 -0.498915,-0.199478 -0.713689,-0.345656 -0.461475,-0.314088 -0.736735,-0.805743 -0.736735,-1.315911 0,-0.319199 0.04768,-0.644951 0.134849,-0.921334 0.07783,-0.2467365 0.328306,-0.7665695 0.49476,-1.0267795 l 0.0993,-0.155224 h 2.582169 c 2.542894,0 2.584635,9.25e-4 2.744239,0.06063 0.308111,0.115275 0.421942,0.267963 0.483129,0.648039 0.04547,0.282442 0.0257,0.5320395 -0.07332,0.9259885 -0.192441,0.765601 -0.397419,1.306018 -0.846735,2.23239 -0.240261,0.495359 -0.310023,0.598298 -0.405463,0.598298 -0.03267,0 -1.68514,-0.05283 -3.672105,-0.117405 z M 6.1797063,8.1124055 C 5.5635736,8.0752275 4.5771702,7.9658115 3.8435964,7.8532735 3.2674458,7.7648885 3.2086464,7.7423155 3.1151443,7.5736025 3.0180046,7.3983145 3.0466263,6.7049693 3.1656561,6.3504102 3.2341977,6.1462307 3.3740065,5.8954467 3.4192883,5.8954467 c 0.012416,0 0.098211,0.019701 0.1906548,0.04378 0.092444,0.024079 0.2645664,0.04378 0.3825006,0.04378 0.2549525,0 0.4737572,0.04877 0.4737572,0.1056134 0,0.032835 0.099693,0.040308 0.5373688,0.040308 0.5847419,0 1.1121496,0.067023 2.8816628,0.3661903 0.8966026,0.151587 1.0385286,0.1909031 1.0646366,0.2949194 0.00989,0.039496 -0.015935,0.2516596 -0.057432,0.4714663 -0.041497,0.2198094 -0.082864,0.4476184 -0.091914,0.5062434 -0.014075,0.09115 -0.033318,0.113334 -0.1328064,0.153141 -0.1558038,0.06233 -0.5180821,0.123345 -0.961943,0.161982 -0.732204,0.06374 -0.9041099,0.06706 -1.5260577,0.02953 z M 7.370135,7.8311495 c 0.5007678,-0.04246 1.0538327,-0.105225 1.1076621,-0.125688 0.056549,-0.02151 0.071649,-0.06544 0.1165584,-0.339047 0.028374,-0.1728899 0.0666,-0.3385841 0.084947,-0.368211 C 8.7233652,6.927061 8.6829512,6.9026995 8.420809,6.8425621 8.1742652,6.7859894 7.228535,6.6443329 6.6678768,6.5799939 6.4441469,6.5543144 6.1297619,6.5080394 5.9692399,6.4771344 5.7124184,6.4277054 5.5419201,6.4209502 4.5488203,6.4208677 l -1.128567,-8.7e-5 -0.033341,0.1386296 c -0.018336,0.07625 -0.040685,0.2773969 -0.049664,0.4469996 -0.013334,0.2521136 -0.00753,0.3253226 0.031729,0.4012976 0.026433,0.05112 0.051983,0.09293 0.056797,0.09293 0.00483,0 0.1522189,0.02574 0.3275849,0.0572 0.5117682,0.09179 1.3037235,0.200955 1.8046879,0.248738 0.4140116,0.0395 1.4677385,0.05378 1.8120987,0.02458 z m 12.233879,-0.24506 c -0.127026,-0.035269 -0.323356,-0.200425 -0.388871,-0.3271182 -0.08463,-0.1636668 -0.05771,-0.5989754 0.04779,-0.7724488 0.150978,-0.248262 0.637064,-0.3366035 0.964216,-0.1752366 0.247139,0.1218991 0.348838,0.3103085 0.352465,0.6529658 0.0035,0.3298898 -0.183891,0.5609028 -0.513869,0.6335128 -0.113322,0.02494 -0.351585,0.01891 -0.461736,-0.01165 z m 0.438469,-0.265133 c 0.177112,-0.039716 0.271342,-0.161532 0.271342,-0.350778 0,-0.2744041 -0.133214,-0.4357993 -0.391696,-0.4745611 -0.17387,-0.026067 -0.335395,0.0342 -0.41713,0.1556673 -0.09183,0.1364689 -0.09578,0.4543351 -0.0071,0.5671522 0.09646,0.1226226 0.291287,0.1593036 0.54452,0.1025176 z M 23.880079,6.961526 c -0.0072,-0.139138 0.0011,-0.1818212 0.04204,-0.2115938 0.07448,-0.054466 11.109677,-0.05416 11.217831,3.13e-4 0.06016,0.030292 0.07455,0.06135 0.08195,0.17695 0.0049,0.078439 -0.0062,0.1585189 -0.02553,0.1817846 -0.02968,0.035777 -0.822193,0.040556 -5.670943,0.034212 l -5.636429,-0.00741 z M 6.0422018,6.0185826 C 5.5986669,5.9840293 4.6543948,5.8621644 4.3056766,5.7944702 4.1933079,5.7726508 3.9175292,5.7392392 3.6928202,5.720209 3.4681135,5.7011788 3.2743952,5.6795124 3.2623346,5.6720627 c -0.012063,-0.00741 -0.021926,0.01271 -0.021926,0.044828 0,0.032106 -0.011652,0.065564 -0.02588,0.074367 -0.014229,0.00882 -0.034153,0.060091 -0.044263,0.1140046 -0.029563,0.1576232 -0.074944,0.1653059 -0.9763256,0.1653059 -0.9285361,0 -0.9388256,-0.00223 -0.887703,-0.1927062 C 1.323032,5.815299 1.402695,5.5145877 1.4832954,5.2096001 1.5638884,4.9046135 1.6577292,4.5845701 1.6918305,4.498394 l 0.06201,-0.1566911 -0.25751,-0.2665016 C 1.2679522,3.8388498 1.1377538,3.6849169 0.6502153,3.0748468 0.53603425,2.9319722 0.52617904,2.9060302 0.52617904,2.7485023 c 0,-0.2438947 0.0509237,-0.2844782 0.34543475,-0.2752821 0.19695351,0.00612 0.23620131,0.017147 0.33991051,0.095362 0.064493,0.048629 0.1829168,0.1274375 0.2631765,0.1751353 0.1439398,0.085548 0.1517519,0.086736 0.5734121,0.086995 l 0.4274905,2.248e-4 0.032894,-0.1889107 C 2.5265864,2.5381319 2.5734494,2.3424953 2.6126278,2.2072893 2.6518058,2.0720844 2.7112858,1.7926433 2.744781,1.5863089 2.778287,1.3799709 2.817853,1.1816017 2.832717,1.1454856 l 0.027021,-0.06567 h 0.9920302 0.9920264 l 0.00823,-0.3575191 0.00823,-0.3575201 0.485133,0.00436 c 0.2987372,0.0027 0.5089871,0.017029 0.5472229,0.037508 0.057538,0.030787 0.062093,0.056703 0.062093,0.3532411 v 0.3200069 h 5.4810045 c 3.924898,0 5.490056,0.00907 5.512891,0.031893 0.02307,0.023056 0.04838,0.023056 0.09148,0 0.0427,-0.022831 2.42062,-0.031882 8.387418,-0.031882 h 8.327835 l 0.146824,-0.1678151 c 0.08076,-0.092291 0.197175,-0.2498991 0.258715,-0.3502246 l 0.111887,-0.1824073 h 0.532209 c 0.458949,0 0.537726,0.00659 0.572267,0.048158 0.02811,0.033741 0.04291,0.15983 0.0496,0.4213707 l 0.0095,0.3732127 0.520697,0.00907 c 0.286379,0.00506 0.5316,0.019995 0.544937,0.033318 0.01334,0.01331 0.03082,0.2037465 0.03882,0.4231867 l 0.01459,0.3989841 0.116747,0.00882 c 0.06515,0.00494 0.132861,0.029928 0.153222,0.056656 0.02755,0.036165 0.03648,0.2957291 0.03648,1.062245 v 1.014373 L 36.67169,4.4273822 c -0.189557,0.1978573 -0.190287,0.1992708 -0.215646,0.4174187 -0.02784,0.2394883 -0.133499,0.5545219 -0.185973,0.5545219 -0.01818,0 -0.296355,0.1300713 -0.618097,0.2890422 -0.321737,0.1589743 -0.637511,0.2987242 -0.70172,0.310559 C 34.704505,6.044211 30.123363,6.060086 18.504327,6.055909 9.8636916,6.0528487 6.3459256,6.0422685 6.0421936,6.0186132 Z M 32.542475,5.7502619 34.891897,5.7326324 35.169155,5.6233825 c 0.152494,-0.060092 0.421728,-0.1843388 0.598302,-0.276112 0.355881,-0.1849717 0.387345,-0.2220564 0.4149,-0.4890013 l 0.0164,-0.1588779 -9.248512,-0.00753 -9.248503,-0.00753 -0.34542,-0.1233244 C 17.166332,4.4931793 16.936497,4.3953451 16.84557,4.3435977 16.686178,4.2528836 16.314857,3.9117676 16.219439,3.7683884 c -0.04565,-0.068593 -0.04796,-0.068898 -0.165445,-0.021902 -0.107308,0.042939 -0.394495,0.047676 -2.890577,0.047676 -2.496901,0 -2.783234,-0.00475 -2.890663,-0.047709 -0.06883,-0.027538 -0.129869,-0.036796 -0.144388,-0.021902 -0.01383,0.014191 -0.0533,0.1374545 -0.08773,0.2738961 -0.03441,0.1364414 -0.1264674,0.4450763 -0.2045634,0.6858545 -0.135633,0.4181766 -0.3208288,1.0398172 -0.3208288,1.076916 0,0.022172 19.8732072,0.012757 23.0272222,-0.010945 z M 9.135847,5.7365664 c 0,-0.052382 0.1621342,-0.6264764 0.5129673,-1.8163138 0.1191653,-0.4041512 0.2166653,-0.7821579 0.2166653,-0.8400156 0,-0.1545199 0.06254,-0.2779607 0.2089954,-0.4125195 0.253047,-0.2324847 0.05415,-0.2190399 3.103539,-0.2097838 l 2.714234,0.00823 0.357521,-0.5413409 c 0.196636,-0.2977357 0.357521,-0.5505546 0.357521,-0.5618185 0,-0.011298 -2.447974,-0.020466 -5.43994,-0.020466 -4.9335931,0 -5.4415892,-0.00436 -5.4576573,-0.046169 -0.00977,-0.025394 -0.017711,-0.181202 -0.017711,-0.3462515 V 0.6500294 L 5.5565734,0.63147 C 5.4821004,0.6212311 5.3507675,0.6129106 5.2647198,0.6129106 H 5.1082769 v 0.3297951 c 0,0.2175913 -0.011922,0.3417087 -0.035024,0.3648157 -0.025856,0.025856 -0.2927681,0.035024 -1.0197643,0.035024 -0.541608,0 -0.9918841,0.011533 -1.0006107,0.02568 -0.0087,0.014123 -0.035095,0.1618742 -0.058585,0.3283335 -0.045498,0.3223455 -0.096045,0.5567885 -0.1911091,0.8862719 -0.032411,0.1123098 -0.058914,0.2389069 -0.058914,0.2813217 0,0.042415 -0.022984,0.104613 -0.051076,0.1382236 -0.047311,0.056596 -0.090903,0.062468 -0.5910047,0.079568 l -0.539927,0.018466 -0.175113,-0.092632 C 1.2908449,2.9568303 1.1635581,2.8765069 1.1043021,2.8292928 0.89467249,2.6622533 0.67628199,2.7458401 0.86530329,2.9207718 c 0.04205,0.038919 0.1098973,0.1232878 0.15077161,0.1874937 0.1522048,0.2391 0.9012229,1.0652657 0.9657913,1.0652657 0.058926,0 0.053195,0.1946726 -0.010356,0.3502247 -0.022937,0.056184 -0.07492,0.2269145 -0.1155108,0.3794077 -0.040603,0.1524933 -0.1015767,0.3494938 -0.1355121,0.4377812 -0.033942,0.088289 -0.071614,0.2229025 -0.083735,0.299148 l -0.022032,0.1386296 h 0.6509415 0.6509439 l 0.040343,-0.094856 c 0.022196,-0.052171 0.054501,-0.1375351 0.071802,-0.1897039 l 0.031459,-0.094856 h -0.400224 c -0.4093253,0 -0.4702666,-0.015288 -0.4702666,-0.1180506 0,-0.026409 0.091315,-0.3241367 0.2029073,-0.6616299 C 2.5042299,4.2821327 2.6364666,3.8438688 2.6864947,3.6457073 2.7891894,3.2389559 2.9280131,2.9153005 3.0534499,2.7902297 c 0.04664,-0.046499 0.1410257,-0.1096853 0.2097579,-0.1404078 0.15655,-0.069977 0.497129,-0.1020474 0.5848926,-0.055078 0.038966,0.020843 0.063552,0.022749 0.063552,0.00494 0,-0.019124 0.8548186,-0.029257 2.4909676,-0.029539 l 2.4909675,-4.484e-4 0.033576,0.073708 c 0.026233,0.057573 0.024797,0.09095 -0.00659,0.1525498 -0.110369,0.2166972 -0.63899,1.9529148 -0.7200666,2.365014 -0.023408,0.1189992 -0.054019,0.1919588 -0.088195,0.2102522 -0.032223,0.01723 -0.9580616,0.027845 -2.4081468,0.027574 -1.2956913,-2.235e-4 -2.3625827,0.00635 -2.3708798,0.014641 -0.00823,0.00835 0.0495,0.015711 0.1284143,0.0165 0.078922,6.544e-4 0.2682631,0.020172 0.4207552,0.043109 0.1524932,0.022925 0.4085956,0.061481 0.569114,0.085677 1.2042476,0.1814822 1.4341785,0.1972395 3.1009394,0.2125072 1.4701958,0.013463 1.5833047,0.010945 1.5833047,-0.034612 z M 4.4672224,1.8697907 C 4.4239134,1.7888687 4.4299394,1.6866514 4.4824394,1.611697 4.5276674,1.547133 4.5317974,1.546839 5.3944802,1.547286 c 0.4766324,2.248e-4 0.8818197,0.010121 0.900411,0.021949 0.051866,0.033011 0.078416,0.2252845 0.040802,0.2955632 -0.032353,0.060433 -0.047699,0.061445 -0.9355773,0.061445 -0.8625943,0 -0.9040299,-0.00247 -0.9329011,-0.056455 z m 3.4708169,3.1573939 c 0.060727,-0.2198874 0.6347522,-2.0955843 0.656794,-2.1461455 0.021113,-0.048452 8.708e-4,-0.051512 -0.2901908,-0.04378 l -0.3128998,0.00835 -0.066211,0.2480748 C 7.8891186,3.2301316 7.7859791,3.6175673 7.6963419,3.9546585 7.6067106,4.2917501 7.4999227,4.6782145 7.4590461,4.8134723 c -0.040873,0.1352579 -0.07432,0.2633073 -0.07432,0.2845571 0,0.029187 0.063987,0.038636 0.2615431,0.038636 h 0.261543 z M 7.088166,4.7061454 C 7.1535417,4.4693792 7.2726986,4.0261276 7.3529502,3.7211403 7.4332018,3.416153 7.5190082,3.1009512 7.5436297,3.0206926 7.5682501,2.9404292 7.5885277,2.8649159 7.5887043,2.8528764 7.5889291,2.8408368 7.4609691,2.8311511 7.3044638,2.8313512 L 7.0199069,2.8317996 6.9548606,3.0867921 C 6.8005832,3.691571 6.4466443,4.9756042 6.3998738,5.1001984 c -0.010356,0.027668 0.056773,0.036483 0.2778558,0.036483 h 0.291556 L 7.0881613,4.7061996 Z M 5.9936284,5.1147387 C 6.0079984,5.0910007 6.1777292,4.4784329 6.4326877,3.5302236 6.5213417,3.2004907 6.6026752,2.9078132 6.6134119,2.879827 6.6313479,2.833081 6.6074119,2.829621 6.3196058,2.837259 l -0.3133365,0.00835 -0.052406,0.2042983 c -0.039461,0.1538479 -0.4838125,1.6609597 -0.600185,2.0356764 -0.01444,0.046511 0.012852,0.051076 0.305422,0.051076 0.1767052,0 0.327239,-0.00989 0.3345239,-0.021902 z M 5.0190351,4.6039956 c 0.1228182,-0.4255109 0.482678,-1.5648837 0.5484645,-1.7365271 0.010592,-0.027621 -0.054101,-0.036483 -0.2664001,-0.036483 -0.2553703,0 -0.2803826,0.00494 -0.2803826,0.055102 0,0.030305 -0.1383648,0.5195226 -0.3074803,1.0871538 -0.169112,0.5676322 -0.3150041,1.0616059 -0.3242015,1.0977244 -0.016358,0.064234 -0.011298,0.06567 0.2297697,0.06567 h 0.2464931 z m -0.9319525,0 C 4.1727243,4.3110474 4.3238005,3.7922799 4.4228022,3.4511759 L 4.6028074,2.8309864 4.352094,2.8314359 4.1013805,2.8318831 3.9149401,3.4195672 C 3.6814398,4.1556026 3.4155234,5.0499361 3.4155234,5.0992203 c 0,0.027492 0.067941,0.037319 0.257923,0.037319 H 3.9313682 L 4.0870826,4.6039062 Z M 2.9636938,5.1001454 c 0.048912,-0.134141 0.6561268,-2.1816532 0.6561268,-2.2124463 0,-0.032306 -0.2450985,0.041803 -0.3366658,0.1018002 C 3.1644204,3.0672913 3.0166229,3.4082891 2.9344119,3.7941001 2.9121806,3.8984366 2.8163789,4.2070711 2.7215163,4.4799547 2.6266596,4.752837 2.5401824,5.0122205 2.5293551,5.0563654 l -0.019678,0.080263 h 0.2203594 c 0.1497393,0 0.2246266,-0.011651 0.2336663,-0.036483 z M 36.477242,4.2150163 36.599234,4.1105916 V 3.2373082 2.3640233 h -6.756398 -6.756405 v 0.4251049 c 0,0.2367532 -0.01334,0.4500772 -0.03016,0.4814611 -0.01661,0.030999 -0.144635,0.1338149 -0.284555,0.2284857 -0.139918,0.094671 -0.270972,0.199852 -0.291225,0.2337355 l -0.03681,0.061606 -2.604447,-0.00745 -2.604446,-0.00746 -0.0089,-0.1386313 -0.0089,-0.1386298 h -0.337557 -0.337498 l 0.08092,0.1094442 c 0.1967,0.2660527 0.400785,0.4342106 0.629708,0.5188533 0.07045,0.026057 0.154056,0.061481 0.185797,0.078745 0.205536,0.1117567 0.0027,0.10945 9.633856,0.1098031 l 9.282977,4.483e-4 z M 22.408792,3.3992542 c 0.100836,-0.071637 0.235452,-0.1568288 0.299155,-0.1893285 l 0.115817,-0.059092 V 2.6680436 2.185255 L 22.6263,1.9608942 C 22.517698,1.8374947 22.391372,1.6872823 22.345574,1.6270871 l -0.08325,-0.10945 h -2.38891 -2.388907 l -0.0081,0.8974475 c -0.0045,0.4935971 -0.0034,0.9467001 0.0022,1.006894 l 0.01036,0.1094453 2.368242,-8.712e-4 2.368242,-8.713e-4 0.183357,-0.1302415 z m -6.453444,0.1030372 c 0.03471,-0.013989 0.07171,-0.052561 0.08223,-0.085708 0.01048,-0.033141 0.03137,-0.060256 0.04635,-0.060256 0.01497,0 0.02722,-0.021007 0.02722,-0.046663 0,-0.025668 0.02065,-0.09016 0.04588,-0.1433277 0.04179,-0.088066 0.04172,-0.1046837 -6.53e-4,-0.1868193 -0.02564,-0.049582 -0.05751,-0.090149 -0.07079,-0.090149 -0.01328,0 -0.06221,-0.036118 -0.108698,-0.080263 l -0.08453,-0.080263 -2.70695,-0.00789 c -2.683669,-0.00776 -2.707963,-0.00741 -2.824825,0.052253 -0.156756,0.079969 -0.232079,0.2082963 -0.232217,0.3956217 0,0.1616894 0.04456,0.2244407 0.224628,0.315416 0.08412,0.042502 0.364027,0.047005 2.816382,0.04534 1.49764,-0.00114 2.751378,-0.013293 2.786082,-0.027293 z M 17.22018,2.2344107 c 0,-0.472585 -0.01142,-0.866312 -0.02542,-0.8749514 -0.01399,-0.00859 -0.214839,0.249972 -0.446362,0.5746889 -0.579197,0.8123413 -0.529861,0.7089923 -0.412105,0.8632638 0.05449,0.071378 0.106555,0.1672349 0.115711,0.213012 l 0.01665,0.083229 h 0.375762 0.37576 z M 36.2782,1.7511313 V 1.5176486 h -0.523251 c -0.43677,0 -0.530832,-0.00753 -0.569114,-0.045863 -0.03714,-0.037142 -0.04585,-0.1204045 -0.04585,-0.4377812 V 0.6420888 h -0.363793 c -0.345321,0 -0.365535,0.0033 -0.39827,0.064434 -0.0446,0.0833 -0.302764,0.4189464 -0.416265,0.5411667 l -0.08809,0.094845 h -5.688771 -5.688768 l 0.05147,0.080263 c 0.02832,0.044145 0.142886,0.1886094 0.254592,0.3210392 l 0.203094,0.2407782 h 6.636502 6.636508 z"
   id="path1316" /></svg>
